PathFileType	4	(X/Y/Z)	/Users/itak/Documents/Research/Walk-IL/dataset/trc/00438_00167.trc
DataRate	CameraRate	NumFrames	NumMarkers	Units	OrigDataRate	OrigDataStartFrame	OrigNumFrames
100.000000	100.000000	4	53	mm	100.000000	0	522
Frame#	Time	RPSI			LPSI			L3			STRN			T10			C7			CLAV			RBAK			LBAK			LSHO			LUPA			LAEL			LAOL			LWTS			LWPS			LFRA			LIFD			LHPS			LHTS			RSHO			RUPA			RAEL			RAOL			RWTS			RWPS			RFRA			RIFD			RHTS			RHPS			RBHD			LFHD			RFHD			LBHD			LHIP			RHIP			RASI			LASI			LKNE			LTHI			LANK			LTIP			LTOE			LMT1			LMT5			LHEE			RKNE			RTHI			RANK			RTIP			RTOE			RMT1			RMT5			RHEE			
		X1	Y1	Z1	X2	Y2	Z2	X3	Y3	Z3	X4	Y4	Z4	X5	Y5	Z5	X6	Y6	Z6	X7	Y7	Z7	X8	Y8	Z8	X9	Y9	Z9	X10	Y10	Z10	X11	Y11	Z11	X12	Y12	Z12	X13	Y13	Z13	X14	Y14	Z14	X15	Y15	Z15	X16	Y16	Z16	X17	Y17	Z17	X18	Y18	Z18	X19	Y19	Z19	X20	Y20	Z20	X21	Y21	Z21	X22	Y22	Z22	X23	Y23	Z23	X24	Y24	Z24	X25	Y25	Z25	X26	Y26	Z26	X27	Y27	Z27	X28	Y28	Z28	X29	Y29	Z29	X30	Y30	Z30	X31	Y31	Z31	X32	Y32	Z32	X33	Y33	Z33	X34	Y34	Z34	X35	Y35	Z35	X36	Y36	Z36	X37	Y37	Z37	X38	Y38	Z38	X39	Y39	Z39	X40	Y40	Z40	X41	Y41	Z41	X42	Y42	Z42	X43	Y43	Z43	X44	Y44	Z44	X45	Y45	Z45	X46	Y46	Z46	X47	Y47	Z47	X48	Y48	Z48	X49	Y49	Z49	X50	Y50	Z50	X51	Y51	Z51	X52	Y52	Z52	X53	Y53	Z53	

1	0	-1164.272705078125	973.1076049804688	-466.24853515625	-1086.96337890625	969.7345581054688	-584.6655883789062	-1123.336791992188	1061.144165039062	-508.0164794921875	-890.6903686523438	1254.284423828125	-377.8562316894531	-1137.444702148438	1185.440185546875	-520.7462768554688	-1089.215576171875	1453.515991210938	-476.9903564453125	-920.625732421875	1368.301513671875	-398.7936706542969	-1190.920043945312	1333.512451171875	-428.44970703125	-1068.865112304688	1408.345825195312	-579.6206665039062	-936.734619140625	1427.793823242188	-596.9244995117188	-899.4385375976562	1310.565307617188	-691.2056274414062	-869.843505859375	1094.380981445312	-712.8576049804688	-970.8192749023438	1084.824340820312	-696.7721557617188	-825.4421997070312	893.2896118164062	-646.1720581054688	-843.396484375	872.3703002929688	-716.1592407226562	-850.8634643554688	1006.245483398438	-716.2113647460938	-834.3993530273438	724.4125366210938	-626.5606079101562	-849.034912109375	787.68603515625	-701.6552734375	-814.7640991210938	802.1940307617188	-639.0972290039062	-1107.584228515625	1420.536499023438	-304.12548828125	-1159.768676757812	1358.623901367188	-246.3351135253906	-1177.598388671875	1070.595825195312	-194.4575500488281	-1209.2607421875	1053.352661132812	-252.0345611572266	-1059.237060546875	874.78125	-192.1640319824219	-1142.707153320312	855.1451416015625	-170.8879852294922	-1175.917724609375	1012.099365234375	-184.5814514160156	-1053.778686523438	715.2177734375	-184.9639892578125	-1046.975219726562	775.1388549804688	-174.7313385009766	-1121.653564453125	769.64501953125	-166.372802734375	-1062.766479492188	1647.43603515625	-360.5335998535156	-867.4378051757812	1667.9248046875	-427.9465942382812	-933.1381225585938	1665.608276367188	-314.7890319824219	-987.5955810546875	1655.103271484375	-522.093994140625	-908.43017578125	854.128173828125	-609.1634521484375	-1145.531494140625	862.0459594726562	-290.9360961914062	-1023.371704101562	900.37158203125	-281.2009582519531	-871.7023315429688	895.6926879882812	-490.8344421386719	-956.9864501953125	436.5378112792969	-570.4402465820312	-915.5746459960938	586.7762451171875	-580.5253295898438	-1039.170288085938	33.56773376464844	-594.4755249023438	-967.7718505859375	285.0972290039062	-578.6988525390625	-891.7879028320312	44.9268913269043	-412.2093811035156	-969.4652709960938	50.32013702392578	-429.7051696777344	-908.0645751953125	45.50345611572266	-525.160400390625	-1112.187377929688	37.7849006652832	-584.6094360351562	-1121.367065429688	464.0848388671875	-321.4344787597656	-1115.952880859375	724.8164672851562	-263.8556213378906	-1154.59716796875	43.25303268432617	-359.7366638183594	-1132.717041015625	319.77001953125	-317.0777282714844	-949.24658203125	48.23952102661133	-285.7448120117188	-983.08935546875	52.77746200561523	-349.6098327636719	-1054.80126953125	48.58967590332031	-268.7247009277344	-1187.1025390625	34.80376434326172	-434.1006164550781	
2	0.01	-1164.153442382812	973.1064453125	-466.3539123535156	-1086.827880859375	969.7140502929688	-584.6900024414062	-1123.260131835938	1061.14697265625	-508.0045776367188	-890.5806884765625	1254.271118164062	-377.882080078125	-1137.37646484375	1185.45166015625	-520.72998046875	-1089.119873046875	1453.509033203125	-476.9536743164062	-920.4912719726562	1368.300170898438	-398.8252563476562	-1190.811401367188	1333.505859375	-428.4019470214844	-1068.780151367188	1408.354370117188	-579.5812377929688	-936.6612548828125	1427.800659179688	-596.9266967773438	-899.4069213867188	1310.5478515625	-691.1997680664062	-869.8499755859375	1094.30859375	-712.8008422851562	-970.7337646484375	1084.584716796875	-696.7515258789062	-825.4652099609375	893.185791015625	-645.5999755859375	-843.2620849609375	872.4581298828125	-715.719482421875	-850.9010009765625	1006.138671875	-716.0433349609375	-833.847412109375	724.2258911132812	-626.978759765625	-848.227294921875	787.9169921875	-701.7112426757812	-814.5529174804688	802.1363525390625	-638.9168090820312	-1107.45166015625	1420.51806640625	-304.066162109375	-1159.595947265625	1358.559448242188	-246.2930908203125	-1177.411987304688	1070.496215820312	-194.5621948242188	-1209.0830078125	1053.3251953125	-252.1878204345703	-1059.216430664062	874.5389404296875	-192.4732971191406	-1142.634765625	854.9768676757812	-171.2651519775391	-1175.789428710938	1011.981811523438	-184.7044525146484	-1053.931030273438	714.96630859375	-185.4911956787109	-1047.051635742188	774.889404296875	-175.166259765625	-1121.766967773438	769.4548950195312	-166.7509002685547	-1062.740478515625	1647.3896484375	-360.5791015625	-867.5330200195312	1667.995361328125	-428.0172729492188	-933.1690063476562	1665.705810546875	-314.8289184570312	-987.6072387695312	1655.049682617188	-522.144775390625	-906.8720092773438	853.0088500976562	-608.5799560546875	-1145.474365234375	862.043701171875	-290.994140625	-1023.325988769531	900.3685302734375	-281.1900634765625	-871.5894165039062	895.6761474609375	-490.8090515136719	-956.911376953125	436.5380249023438	-570.437744140625	-915.4881591796875	586.741943359375	-580.5023193359375	-1039.162841796875	33.572509765625	-594.48095703125	-967.7031860351562	285.0708618164062	-578.680419921875	-891.7811889648438	44.92193984985352	-412.2045288085938	-969.4624633789062	50.31884765625	-429.7066955566406	-908.0621337890625	45.49808883666992	-525.1482543945312	-1112.18017578125	37.79345321655273	-584.6114501953125	-1121.322143554688	464.0902099609375	-321.4535522460938	-1115.886474609375	724.8156127929688	-263.9054260253906	-1154.559204101562	43.23405838012695	-359.7864074707031	-1132.660400390625	319.765380859375	-317.1275024414062	-949.2334594726562	48.23555755615234	-285.7493286132812	-983.0986938476562	52.77791213989258	-349.6056823730469	-1054.799682617188	48.58906555175781	-268.7275390625	-1187.10205078125	34.810302734375	-434.1052856445312	
3	0.02	-1164.011108398438	973.1080932617188	-466.4690551757812	-1086.665161132812	969.6923217773438	-584.7175903320312	-1123.159301757812	1061.14990234375	-507.9919128417969	-890.4428100585938	1254.2548828125	-377.9143981933594	-1137.290283203125	1185.4677734375	-520.716796875	-1088.999145507812	1453.5009765625	-476.9071960449219	-920.3248291015625	1368.298583984375	-398.8652954101562	-1190.675170898438	1333.49755859375	-428.3465576171875	-1068.666137695312	1408.364379882812	-579.5357055664062	-936.5714721679688	1427.80859375	-596.9293212890625	-899.3580322265625	1310.522094726562	-691.1895751953125	-869.836669921875	1094.219116210938	-712.7183837890625	-970.6361083984375	1084.302612304688	-696.72998046875	-825.5401611328125	893.0486450195312	-644.8660278320312	-843.0494384765625	872.5772705078125	-715.1500854492188	-850.9154052734375	1006.0107421875	-715.81103515625	-833.0872192382812	724.0304565429688	-627.4921875	-847.1381225585938	788.2293090820312	-701.7539672851562	-814.2076416015625	802.1162719726562	-638.6697387695312	-1107.284912109375	1420.49462890625	-303.9928283691406	-1159.3857421875	1358.479248046875	-246.2396240234375	-1177.172729492188	1070.372314453125	-194.6896057128906	-1208.852661132812	1053.293212890625	-252.3768615722656	-1059.193115234375	874.2369384765625	-192.8583831787109	-1142.555053710938	854.7672119140625	-171.732177734375	-1175.621459960938	1011.837463378906	-184.8616485595703	-1054.135131835938	714.6571655273438	-186.1444091796875	-1047.150634765625	774.5701293945312	-175.7139587402344	-1121.90185546875	769.2096557617188	-167.2399139404297	-1062.711547851562	1647.323120117188	-360.6477966308594	-867.6541137695312	1668.087646484375	-428.1087646484375	-933.2138061523438	1665.831176757812	-314.8889465332031	-987.6234741210938	1654.981811523438	-522.2105712890625	-905.8884887695312	852.3827514648438	-608.2313232421875	-1145.403930664062	862.0427856445312	-291.0664367675781	-1023.275512695312	900.36474609375	-281.1802673339844	-871.4465942382812	895.6530151367188	-490.7774658203125	-956.8151245117188	436.5374145507812	-570.4332275390625	-915.377685546875	586.7005615234375	-580.4713134765625	-1039.154663085938	33.57914733886719	-594.4873657226562	-967.6170654296875	285.0417785644531	-578.6604614257812	-891.7721557617188	44.91494369506836	-412.1972961425781	-969.458251953125	50.31737518310547	-429.7081298828125	-908.05322265625	45.48993682861328	-525.1380615234375	-1112.171264648438	37.80329895019531	-584.613525390625	-1121.268676757812	464.0969543457031	-321.4791259765625	-1115.813598632812	724.817626953125	-263.9636535644531	-1154.5224609375	43.21914672851562	-359.8351135253906	-1132.593505859375	319.7616882324219	-317.1888122558594	-949.2205810546875	48.23218154907227	-285.75439453125	-983.10400390625	52.77577209472656	-349.6013793945312	-1054.79833984375	48.58868408203125	-268.7298889160156	-1187.1015625	34.8191032409668	-434.1104431152344	
4	0.03	-1163.857055664062	973.11376953125	-466.5801086425781	-1086.488037109375	969.6715698242188	-584.745361328125	-1123.036499023438	1061.152587890625	-507.9801025390625	-890.2828979492188	1254.236694335938	-377.9514465332031	-1137.1884765625	1185.488159179688	-520.7110595703125	-1088.857788085938	1453.492431640625	-476.8534240722656	-920.1346435546875	1368.296875	-398.9121704101562	-1190.516723632812	1333.487670898438	-428.2883605957031	-1068.5244140625	1408.37451171875	-579.48828125	-936.4695434570312	1427.816528320312	-596.93212890625	-899.2889404296875	1310.48681640625	-691.1736450195312	-869.7925415039062	1094.116943359375	-712.6069946289062	-970.5421752929688	1084.010131835938	-696.70947265625	-825.6729736328125	892.8873291015625	-643.9935302734375	-842.7490844726562	872.7269897460938	-714.4688110351562	-850.8850708007812	1005.872741699219	-715.5114135742188	-832.1092529296875	723.8526000976562	-628.0679321289062	-845.7836303710938	788.6201171875	-701.7706909179688	-813.7042236328125	802.1574096679688	-638.3580322265625	-1107.090698242188	1420.467163085938	-303.9093322753906	-1159.148803710938	1358.38671875	-246.1772155761719	-1176.886962890625	1070.230102539062	-194.8318328857422	-1208.578002929688	1053.259155273438	-252.5877532958984	-1059.168212890625	873.8887329101562	-193.3072204589844	-1142.477294921875	854.52685546875	-172.2609252929688	-1175.414794921875	1011.673461914062	-185.0487213134766	-1054.38623046875	714.3052368164062	-186.8961639404297	-1047.267456054688	774.19189453125	-176.3531188964844	-1122.051147460938	768.9212036132812	-167.820068359375	-1062.683715820312	1647.236206054688	-360.7410278320312	-867.795654296875	1668.199951171875	-428.2189331054688	-933.27294921875	1665.980834960938	-314.97216796875	-987.6446533203125	1654.901733398438	-522.2901611328125	-905.7000732421875	852.4179077148438	-608.2032470703125	-1145.322875976562	862.0447387695312	-291.1496887207031	-1023.224304199219	900.3607177734375	-281.1731567382812	-871.2791137695312	895.6234741210938	-490.7417297363281	-956.7030029296875	436.5348510742188	-570.4257202148438	-915.2467651367188	586.655029296875	-580.4329833984375	-1039.14697265625	33.58747100830078	-594.4942016601562	-967.5171508789062	285.0126342773438	-578.6400146484375	-891.761474609375	44.90572357177734	-412.1878967285156	-969.4519653320312	50.31595611572266	-429.7087097167969	-908.0367431640625	45.4776725769043	-525.1328735351562	-1112.161376953125	37.81448364257812	-584.6156005859375	-1121.211059570312	464.1054992675781	-321.51025390625	-1115.739501953125	724.8235473632812	-264.0272521972656	-1154.491577148438	43.21143341064453	-359.878173828125	-1132.522827148438	319.7603454589844	-317.2561645507812	-949.20947265625	48.22987365722656	-285.7597351074219	-983.10546875	52.77032852172852	-349.5970458984375	-1054.797485351562	48.58872222900391	-268.7317504882812	-1187.100708007812	34.82947158813477	-434.1156616210938	
